HIERARCHY
ROOT Hips
{
	OFFSET 0.000000 0.974569 0.000000
	CHANNELS 6 Xposition Yposition Zposition Zrotation Yrotation Xrotation 
	JOINT LeftUpLeg
	{
		OFFSET 0.053611 -0.120306 -0.009227
		CHANNELS 3 Zrotation Yrotation Xrotation
		JOINT LeftLeg
		{
			OFFSET 0.058153 -0.371348 0.006991
			CHANNELS 3 Zrotation Yrotation Xrotation
			JOINT LeftFoot
			{
				OFFSET -0.020238 -0.427362 -0.108449
				CHANNELS 3 Zrotation Yrotation Xrotation
				End Site #name: LeftToeBase
				{
					OFFSET 0.052392 -0.047966 0.122358
				}
			}
		}
	}
	JOINT rightUpLeg
	{
		OFFSET -0.063475 -0.125611 -0.020483
		CHANNELS 3 Zrotation Yrotation Xrotation
		JOINT RightLeg
		{
			OFFSET -0.079527 -0.356086 0.052183
			CHANNELS 3 Zrotation Yrotation Xrotation
			JOINT RightFoot
			{
				OFFSET -0.013845 -0.431396 -0.020664
				CHANNELS 3 Zrotation Yrotation Xrotation
				End Site #name: RightToeBase
				{
					OFFSET -0.015245 -0.047948 0.141654
				}
			}
		}
	}
	JOINT Spine
	{
		OFFSET 0.001639 0.080604 -0.041970
		CHANNELS 3 Zrotation Yrotation Xrotation
		JOINT Spine1
		{
			OFFSET -0.009864 0.155137 0.037792
			CHANNELS 3 Zrotation Yrotation Xrotation
			JOINT Spine2
			{
				OFFSET 0.001139 0.066846 0.006758
				CHANNELS 3 Zrotation Yrotation Xrotation
				JOINT Neck
				{
					OFFSET 0.018686 0.224605 -0.011019
					CHANNELS 3 Zrotation Yrotation Xrotation
					End Site #name: Head
					{
						OFFSET -0.019082 0.060121 0.044155
					}
				}
				JOINT LeftShoulder
				{
					OFFSET 0.084077 0.126552 -0.008465
					CHANNELS 3 Zrotation Yrotation Xrotation
					JOINT LeftArm
					{
						OFFSET 0.120408 0.006700 0.048203
						CHANNELS 3 Zrotation Yrotation Xrotation
						JOINT LeftForeArm
						{
							OFFSET 0.020262 -0.229540 0.157116
							CHANNELS 3 Zrotation Yrotation Xrotation
							End Site #name: LeftHand
							{
								OFFSET -0.047482 -0.044792 0.258529
							}
						}
					}
				}
				JOINT RightShoulder
				{
					OFFSET -0.073678 0.144140 -0.011505
					CHANNELS 3 Zrotation Yrotation Xrotation
					JOINT RightArm
					{
						OFFSET -0.118473 0.019262 0.025307
						CHANNELS 3 Zrotation Yrotation Xrotation
						JOINT RightForeArm
						{
							OFFSET -0.019182 -0.209262 0.190440
							CHANNELS 3 Zrotation Yrotation Xrotation
							End Site #name: RightHand
							{
								OFFSET 0.078721 0.008206 0.259714
							}
						}
					}
				}
			}
		}
	}
}
MOTION
Frames: 20
Frame Time: 0.041667
0.093362 0.971630 -0.212857 -2.227622 -4.946268 1.325503 -3.357548 -0.898039 -4.462561 -0.341894 0.194523 -2.452631 -0.789240 -2.824942 -0.680638 -2.733123 -1.345075 4.809533 13.679974 -0.973531 2.042383 -19.874946 -45.476398 7.851056 2.459488 -0.652464 -1.329041 0.708313 -0.210954 5.946488 -3.898385 -2.458351 -0.900997 14.090063 -8.774885 9.173968 -1.624701 -1.683974 0.764135 8.432010 5.559255 9.732117 -2.413196 -10.856657 -5.699540 9.599049 -20.363563 -3.183741 -2.251563 -2.996494 19.580913 -0.400071 3.231139 1.071808 
0.097672 0.968680 -0.228155 -1.692853 -5.644977 1.813879 -3.935482 -1.250334 -6.112219 -0.417317 0.197692 -2.121578 -1.058517 -3.105995 -0.320458 -3.219372 -2.293961 9.529427 15.598932 -1.222576 2.743927 -24.138646 -50.975684 10.737989 2.960691 -0.836635 -3.242564 1.029154 -0.281163 6.732619 -4.426833 -2.968345 -0.802479 15.335967 -9.873658 8.448361 -2.430084 -3.711649 1.243605 7.971583 5.295673 10.172958 -2.797740 -13.884588 -5.514571 11.341622 -24.183996 -4.260459 -3.326652 -3.774754 22.912755 0.034364 3.585429 -0.542127 
0.100726 0.964993 -0.244539 -1.011246 -6.274308 2.328245 -4.494334 -1.648619 -7.911197 -0.524718 0.207225 -1.751232 -1.392817 -3.387183 0.177940 -3.623396 -3.157384 14.046333 16.636731 -1.159227 1.964519 -29.317772 -54.779226 16.333205 3.463795 -1.002339 -5.130473 1.374929 -0.359302 7.490678 -4.995085 -3.528735 -0.539520 16.745276 -11.076819 7.626470 -3.241086 -6.080848 1.773636 7.427969 4.990286 10.703099 -3.171382 -16.897786 -4.501144 13.220136 -28.330561 -5.622251 -4.843970 -4.711114 26.438874 0.355893 4.441764 -1.860947 
0.102568 0.961415 -0.262782 -0.230949 -6.828418 2.825886 -4.934775 -2.074387 -9.812661 -0.605824 0.208834 -1.325419 -1.780495 -3.582369 0.858486 -3.874392 -3.870542 17.913099 16.744739 -0.788925 -0.125994 -34.625662 -56.965205 22.980440 4.100418 -1.165278 -6.658026 1.745695 -0.437547 7.975879 -5.710938 -4.141514 -0.006062 18.426802 -12.460894 6.617123 -3.975321 -8.927736 2.331596 6.944054 4.723862 11.153243 -3.541871 -19.507999 -2.841839 15.267380 -32.623082 -7.269852 -6.636259 -5.666116 29.731997 0.513744 5.487403 -2.661991 
0.103405 0.957838 -0.283473 1.073199 -7.303396 3.099517 -5.086331 -2.521060 -11.911978 -1.184657 0.336539 -0.994437 -2.675008 -4.271478 2.197121 -4.130769 -4.682263 22.419883 15.166042 0.096596 -5.002950 -39.533654 -57.907271 29.755402 4.724649 -1.305246 -8.023767 2.520643 -0.588761 8.419047 -6.863648 -4.920073 1.072711 19.903448 -13.617116 5.951449 -4.708541 -12.951752 3.013741 6.321570 4.385994 11.382824 -4.007848 -22.045202 -0.074618 18.177806 -37.560622 -9.577823 -9.182897 -6.827500 33.677662 0.811117 6.444759 -4.050978 
0.103355 0.954696 -0.307574 2.054879 -7.756131 3.488527 -5.258486 -3.007847 -14.152319 -0.827410 0.244544 -0.875326 -3.887143 -5.586007 3.625987 -3.661653 -5.075403 24.388429 13.352807 0.819744 -9.782127 -44.441698 -59.987285 34.331461 6.036642 -1.531584 -8.528953 2.697415 -0.609439 8.167495 -7.928640 -5.620307 2.151338 21.185497 -14.620166 4.604434 -5.207053 -16.660666 3.580485 6.261480 4.355212 11.640565 -4.286929 -23.173781 2.037126 20.902203 -41.962593 -12.043822 -11.361341 -7.692666 36.393632 0.719866 7.720581 -4.024404 
0.102690 0.952009 -0.332932 3.028755 -8.120928 3.843665 -5.265426 -3.482290 -16.421315 -0.266013 0.115156 -1.064374 -5.461819 -7.300330 5.380128 -3.038487 -5.279245 25.203418 11.279233 1.339357 -14.333422 -48.787861 -62.341670 37.229959 7.622108 -1.792258 -8.679886 2.699329 -0.586671 7.612589 -8.916657 -6.273506 3.325473 22.126297 -15.332426 3.198621 -5.684283 -20.497079 4.166779 6.467309 4.467029 11.790719 -4.388495 -23.396088 3.756433 23.948818 -46.157511 -14.898817 -13.656878 -8.520549 38.694924 0.588469 8.830037 -3.777491 
0.101576 0.950404 -0.358182 3.991022 -8.354843 4.195705 -5.097674 -3.927986 -18.696752 0.361045 -0.007747 -1.659957 -7.482950 -9.271570 7.674356 -2.391738 -5.311123 25.089707 9.089498 1.576287 -17.960204 -51.749508 -64.251824 38.600587 9.298941 -2.066891 -8.674596 2.602526 -0.540839 6.888154 -9.683212 -6.837834 4.487603 22.726341 -15.773165 1.865536 -6.199344 -24.337097 4.794682 6.882582 4.690438 11.943175 -4.228108 -22.576674 5.008484 27.376171 -49.956381 -18.106550 -16.073161 -9.340449 40.535712 0.419546 9.510541 -3.226592 
0.100306 0.950345 -0.381455 4.989670 -8.450527 4.502671 -4.930954 -4.327788 -20.769662 0.938146 -0.093778 -2.588367 -9.791643 -11.289856 10.301638 -2.038639 -5.197046 24.374959 7.215260 1.603066 -20.380927 -53.159171 -65.383656 38.912576 10.809969 -2.315366 -8.648416 2.487668 -0.492865 6.147419 -10.129375 -7.292651 5.559393 23.041897 -16.000159 0.758264 -6.684968 -27.932806 5.404517 7.478151 5.008923 12.058294 -3.826809 -20.891781 5.898777 30.982125 -53.161494 -21.475174 -18.299603 -10.061356 41.904862 0.193998 9.611862 -2.252113 
0.098955 0.951485 -0.400789 5.999951 -8.430822 4.667277 -4.895420 -4.676044 -22.469927 1.459346 -0.161815 -3.450184 -11.968723 -13.103107 12.691680 -2.125288 -5.003387 23.438574 5.946449 1.549017 -21.702382 -53.623426 -65.905779 38.812946 11.978952 -2.507187 -8.650429 2.422818 -0.456150 5.463619 -10.282202 -7.618770 6.522153 23.069771 -16.026235 -0.044229 -6.958855 -30.888382 5.843576 8.183669 5.388507 11.886291 -3.287447 -18.747766 6.520111 34.363144 -55.646735 -24.658603 -20.033978 -10.577017 43.016583 -0.057509 9.035776 -1.026219 
0.097372 0.952951 -0.415018 6.883201 -8.347372 4.694529 -4.955737 -4.965071 -23.775422 1.926934 -0.232125 -3.972720 -13.709685 -14.500023 14.544896 -2.483277 -4.810653 22.581094 5.239682 1.494145 -22.287179 -53.763945 -66.082210 38.758414 12.759608 -2.633017 -8.695882 2.423262 -0.433891 4.889000 -10.241050 -7.818750 7.311092 22.850517 -15.887154 -0.545659 -6.857231 -33.007523 5.976642 8.973398 5.826520 11.262791 -2.732783 -16.589063 6.935490 37.138549 -57.406277 -27.303950 -21.228026 -10.867933 44.068112 -0.297089 8.102120 0.147669 
0.095351 0.953985 -0.424164 7.538762 -8.252723 4.661619 -5.090631 -5.211986 -24.782676 2.309750 -0.301034 -4.184855 -14.857109 -15.411401 15.729053 -2.856271 -4.678113 22.010425 4.912961 1.462241 -22.504193 -53.963047 -66.184828 38.875469 13.210587 -2.704453 -8.739749 2.451822 -0.422643 4.495328 -10.085856 -7.924553 7.829792 22.442778 -15.623781 -0.787341 -6.434360 -34.360860 5.832083 9.770486 6.289655 10.330097 -2.257823 -14.750415 7.181831 39.093410 -58.509099 -29.176444 -21.989440 -11.002522 44.984729 -0.514310 7.163983 1.156134 
0.092820 0.954932 -0.429005 8.266521 -8.063747 4.286409 -5.823414 -5.719845 -26.254345 2.739476 -0.469273 -3.132609 -15.228719 -15.776440 16.051696 -3.334514 -4.607060 21.773163 4.820817 1.401140 -21.881051 -53.730507 -66.388679 38.312355 13.324550 -2.771531 -7.903043 2.040523 -0.340092 3.801346 -9.580413 -7.991629 7.778332 21.661684 -15.117304 -0.960493 -5.791974 -34.798920 5.460953 10.611551 6.780288 9.732358 -1.943652 -13.237266 6.197349 40.732671 -59.185636 -30.599006 -22.478153 -11.092864 45.508224 -0.748593 6.005539 2.182952 
0.089316 0.954439 -0.429789 8.594490 -8.001539 4.359600 -6.080780 -6.033469 -27.347429 2.903148 -0.496617 -3.262750 -15.591845 -15.833479 16.594063 -3.393811 -4.597606 21.739541 4.723564 1.390996 -21.933760 -53.756712 -66.627183 38.032753 13.537405 -2.816979 -7.752342 2.095508 -0.336862 3.503923 -9.343080 -8.008085 7.935519 20.875822 -14.601854 -0.918012 -4.799422 -35.487260 4.881978 11.384022 7.280710 8.415580 -1.539607 -11.490713 6.018903 41.434155 -59.518266 -31.262429 -22.941189 -11.172638 46.013815 -0.988046 5.436078 3.139726 
0.084887 0.953311 -0.426537 8.765697 -7.957816 4.521538 -6.416857 -6.449571 -28.759531 2.842495 -0.471742 -3.417517 -15.680438 -15.387440 17.082495 -3.200459 -4.640828 21.913810 4.727771 1.389901 -21.910978 -53.311490 -66.894175 37.120056 13.691010 -2.864342 -7.412013 2.177325 -0.333430 3.113388 -9.139471 -7.984781 8.041055 19.898863 -13.958905 -0.887051 -3.474993 -35.918578 4.062724 12.174246 7.830655 6.859265 -1.100389 -9.509019 5.739509 41.483210 -59.533522 -31.301969 -23.297214 -11.246760 46.310559 -1.242685 5.029288 4.121040 
0.079047 0.951234 -0.418770 8.710211 -7.932994 4.806555 -7.014246 -7.044886 -30.544976 2.554411 -0.392066 -3.638429 -15.453468 -14.410567 17.484573 -2.593541 -4.748649 22.297577 4.841194 1.394503 -21.754734 -52.192177 -67.113997 35.409223 13.751651 -2.911271 -6.826326 2.296934 -0.328622 2.574656 -8.978318 -7.907344 8.106525 18.570797 -13.085329 -0.928360 -1.829966 -35.950409 3.006472 12.989835 8.444275 5.055592 -0.593809 -7.150428 5.428687 40.677782 -59.089916 -30.485589 -23.466269 -11.313236 46.265123 -1.512466 4.658240 5.136077 
0.070918 0.947274 -0.405595 8.156249 -7.963480 5.302645 -8.320908 -8.005551 -32.764504 2.142213 -0.284981 -3.881710 -14.772053 -12.830351 17.644230 -0.937246 -4.978009 22.932086 5.086338 1.400422 -21.379018 -49.503277 -67.173372 31.852819 13.577508 -2.934765 -5.917726 2.445424 -0.318512 1.839174 -8.875718 -7.714861 8.046136 16.483757 -11.719124 -1.134737 -0.166937 -35.043555 1.893234 13.801500 9.088207 3.306266 0.006202 -4.282985 5.113995 38.112231 -57.530091 -27.869870 -23.024685 -11.328742 45.257608 -1.811305 4.289148 6.236503 
0.058418 0.940330 -0.385196 6.673517 -8.083853 5.889112 -10.731856 -9.418273 -34.965037 2.380581 -0.416404 -2.724708 -13.499241 -11.441043 16.660406 2.631794 -5.495762 24.117819 5.468466 1.375356 -20.411019 -43.617174 -66.232839 25.077187 12.589216 -2.798685 -4.938484 2.277027 -0.281651 1.380616 -8.639726 -7.184341 7.289028 13.123175 -9.521255 -1.494699 -0.593766 -31.680197 1.989598 13.909561 9.167804 3.177397 0.509715 -1.768024 4.817317 31.368241 -52.760447 -21.349926 -20.040574 -10.741286 41.873725 -1.992314 3.932492 6.879464 
0.037596 0.934388 -0.354638 4.654381 -8.180437 6.102657 -13.082151 -10.577545 -36.016766 3.864824 -1.159259 2.107302 -10.706529 -8.754742 14.059224 6.552938 -6.282271 25.858088 6.408076 1.260149 -17.735519 -40.620679 -62.766149 25.034025 10.709338 -2.444501 -4.439845 1.512609 -0.232091 2.597611 -7.536157 -6.281326 5.230385 8.130210 -6.219792 -1.865582 -3.533431 -25.573144 3.363317 11.998245 7.830102 5.143967 0.931925 -0.339078 5.433153 22.589197 -43.954388 -13.402590 -14.346906 -9.066955 35.782761 -1.817368 2.879387 6.166438 
0.008327 0.933631 -0.313821 2.940940 -7.986243 4.756959 -13.703818 -10.703989 -35.686804 6.642758 -2.757385 9.509756 -9.256924 -8.024017 12.039091 8.831683 -7.038948 27.655206 8.209786 0.838763 -11.847939 -35.309254 -56.186911 25.190978 7.926909 -1.893658 -3.280818 -0.164695 -0.060520 4.926175 -6.105028 -5.016041 2.474077 4.926972 -3.870391 -1.217808 -6.402963 -17.136966 4.247373 9.987618 6.387383 10.969342 1.018627 0.080585 5.401005 15.821177 -33.695012 -7.725998 -10.211790 -7.606275 27.606685 -1.360816 2.582926 4.530149 
